<svg width="667" height="525" viewBox="0 0 667 525" fill="none" xmlns="http://www.w3.org/2000/svg">
<g clip-path="url(#clip0_1822_47224)">
<path d="M2.30578 465.195C48.3572 483.301 97.5915 499.073 147.435 492.092C148.87 491.95 151.506 491.466 152.981 491.238C154.404 491.044 157.206 490.504 158.618 490.247C208.7 481.115 266.862 455.259 269.738 397.507C270.637 378.341 265.9 357.821 257.166 340.768C219.917 273.018 122.587 267.443 58.2644 236.566C42.43 228.93 27.5635 219.61 16.3125 205.512C-3.83783 180.527 -4.98228 145.015 11.0173 117.588C60.5249 32.4546 246.285 1.16143 338.439 0.0511436C419.394 -1.03068 501.652 14.6785 574.003 51.8476C603.406 67.5625 632.382 86.1869 652.236 114.018C655.424 118.642 658.397 123.977 660.509 129.443C661.352 131.498 661.949 133.781 662.661 135.82C668.201 153.721 669.198 174.128 661.084 191.499L660.862 191.966C660.537 192.889 661.665 189.797 661.363 188.818L660.554 192.598C658.271 196.556 655.55 200.2 652.486 203.399C643.65 212.566 631.653 218.494 619.098 219.82C627.064 212.305 635.166 203.895 640.034 194.13C641.554 191.129 642.773 188.089 643.724 185.037L642.915 188.818C643.388 186.711 644.139 182.896 644.452 180.75C644.521 180.351 644.555 179.93 644.606 179.52L644.76 178.284L644.971 175.773C645.796 162.279 643.661 148.312 638.053 135.894C633.424 126.71 626.432 119.017 618.648 111.763C607.739 101.708 595.258 93.1106 582.436 85.441C460.719 15.9255 310.824 13.312 177.458 47.0022C127.854 59.7222 38.0116 90.2352 24.318 145.078C20.4121 161.009 23.7429 178.54 34.1284 191.351C38.7005 197.114 44.8612 202.329 51.3749 206.594C56.7157 210.124 62.2843 213.09 68.1033 215.869C118.767 238.735 175.642 246.166 224.13 275.221C247.225 288.858 267.711 308.274 279.702 332.615C286.631 347.322 291.044 362.974 292.764 379.19C297.888 426.75 274.492 465.422 233.093 487.827C209.287 500.855 182.828 507.961 156.186 511.781C101.458 519.798 41.8948 504.898 2.31148 465.2L2.30578 465.195Z" fill="#322F80"/>
<path d="M108.797 209.623C87.0297 205.427 60.7357 191.568 53.8519 169.026C44.571 134.761 85.5493 109.816 111.359 97.142C144.486 81.1937 180.032 71.1442 215.915 63.9529C287.446 49.6501 361.71 49.1433 433.275 63.5145C483.523 73.8146 533.987 88.1629 577.733 115.915C590.988 124.808 604.249 135.581 611.679 150.402C618.66 164.164 617.578 180.141 608.115 192.485C600.502 202.62 590.174 209.378 579.52 215.436C554.012 229.381 526.483 239.014 500.081 250.487C462.598 266.72 423.955 285.089 396.875 316.217C379.492 336.151 369.63 361.391 369.009 387.828C368.229 413.632 375.722 440.455 394.222 458.972C443.387 505.997 529.928 493.749 589.912 476.292C603.52 472.318 616.98 467.666 630.48 462.752C606.168 478.325 579.452 490.157 551.57 497.974C523.209 505.854 493.738 509.316 464.267 506.509C417.139 502.267 372.192 480.187 355.76 433.008C345.369 403.639 345.972 371.059 356.756 341.964C367.341 313.062 389.274 289.16 413.82 271.554C455.316 241.548 504.459 225.463 550.123 204.892C561.984 199.357 574.544 193.225 584.167 184.969C589.593 180.197 594.273 174.413 593.248 167.102C590.157 149.081 563.037 133.258 547.51 125.15C522.964 112.652 496.351 103.639 469.636 96.4986C375.039 71.0075 274.151 71.6965 179.503 96.5727C153.027 103.684 126.288 112.646 102.676 126.254C96.9141 129.637 91.4196 133.332 86.5571 137.403C79.8156 143.199 74.0307 149.303 72.3454 157.405C69.2935 174.936 97.512 196.795 108.78 209.623H108.797Z" fill="#DF1F26"/>
<path d="M318.5 506C312.146 506 307 500.728 307 494.218V77.7819C307 71.2724 312.146 66 318.5 66C324.854 66 330 71.2724 330 77.7819V494.212C330 500.722 324.854 505.994 318.5 505.994V506Z" fill="#DF1F26"/>
<path d="M270.82 497.427C294.591 486.062 329.363 485.549 354.462 492.809C358.55 494.05 362.536 495.422 366.413 497.427C362.536 499.436 358.556 500.803 354.462 502.044C329.375 509.298 294.603 508.791 270.82 497.427Z" fill="#DF1F26"/>
</g>
<defs>
<clipPath id="clip0_1822_47224">
<rect width="667" height="524.604" fill="white"/>
</clipPath>
</defs>
</svg>
